<?xml version="1.0" standalone="no"?><!DOCTYPE svg PUBLIC "-//W3C//DTD SVG 1.1//EN" "http://www.w3.org/Graphics/SVG/1.1/DTD/svg11.dtd"><svg t="1692147530834" class="icon" viewBox="0 0 1024 1024" version="1.1" xmlns="http://www.w3.org/2000/svg" p-id="3592" xmlns:xlink="http://www.w3.org/1999/xlink" width="200" height="200"><path d="M341.333333 554.666667H256v213.333333h85.333333v-213.333333z m85.333334 0l85.333333 89.6 85.333333-85.333334V469.333333h256v384h-256v-170.666666l-25.6 25.6-59.733333 55.466666-59.733333-59.733333-25.6-25.6V853.333333H170.666667v-384h256v85.333334z m341.333333 0h-85.333333v213.333333h85.333333v-213.333333z m85.333333-256c0 72.533333-55.466667 128-128 128s-128-55.466667-128-128 55.466667-128 128-128 128 55.466667 128 128z m-85.333333 0c0-25.6-17.066667-42.666667-42.666667-42.666667s-42.666667 17.066667-42.666666 42.666667 17.066667 42.666667 42.666666 42.666666 42.666667-17.066667 42.666667-42.666666z m-341.333333 0c0 72.533333-55.466667 128-128 128S170.666667 371.2 170.666667 298.666667s55.466667-128 128-128 128 55.466667 128 128zM341.333333 298.666667c0-25.6-17.066667-42.666667-42.666666-42.666667s-42.666667 17.066667-42.666667 42.666667 17.066667 42.666667 42.666667 42.666666 42.666667-17.066667 42.666666-42.666666z" fill="#444444" p-id="3593"></path></svg>