<?xml version="1.0" standalone="no"?><!DOCTYPE svg PUBLIC "-//W3C//DTD SVG 1.1//EN" "http://www.w3.org/Graphics/SVG/1.1/DTD/svg11.dtd"><svg t="1692146775670" class="icon" viewBox="0 0 1024 1024" version="1.1" xmlns="http://www.w3.org/2000/svg" p-id="4368" xmlns:xlink="http://www.w3.org/1999/xlink" width="200" height="200"><path d="M512 85.333333c-115.882667 0-130.389333 0.512-175.914667 2.56-45.397333 2.090667-76.416 9.301333-103.552 19.84a209.109333 209.109333 0 0 0-75.605333 49.194667A209.152 209.152 0 0 0 107.733333 232.533333c-10.538667 27.136-17.749333 58.154667-19.84 103.552C85.802667 381.610667 85.333333 396.117333 85.333333 512s0.469333 130.389333 2.56 175.914667c2.090667 45.397333 9.301333 76.416 19.84 103.552a209.194667 209.194667 0 0 0 49.194667 75.605333 209.194667 209.194667 0 0 0 75.605333 49.194667c27.136 10.538667 58.154667 17.749333 103.552 19.84 45.525333 2.048 60.032 2.56 175.914667 2.56s130.389333-0.512 175.914667-2.56c45.397333-2.090667 76.416-9.301333 103.552-19.84a209.152 209.152 0 0 0 75.605333-49.194667 209.152 209.152 0 0 0 49.194667-75.605333c10.538667-27.136 17.749333-58.154667 19.84-103.552 2.048-45.525333 2.56-60.032 2.56-175.914667s-0.512-130.389333-2.56-175.914667c-2.090667-45.397333-9.301333-76.416-19.84-103.552a209.152 209.152 0 0 0-49.194667-75.605333 209.109333 209.109333 0 0 0-75.605333-49.194667c-27.136-10.538667-58.154667-17.749333-103.552-19.84C642.389333 85.845333 627.882667 85.333333 512 85.333333m0 76.885334c113.92 0 127.402667 0.426667 172.373333 2.474666 41.642667 1.92 64.213333 8.832 79.274667 14.677334 19.882667 7.765333 34.133333 17.024 49.066667 31.914666 14.933333 14.933333 24.149333 29.184 31.914666 49.066667 5.802667 15.061333 12.8 37.632 14.677334 79.232 2.048 45.013333 2.474667 58.453333 2.474666 172.416 0 113.92-0.426667 127.402667-2.474666 172.373333-1.92 41.642667-8.874667 64.213333-14.677334 79.274667a132.266667 132.266667 0 0 1-31.914666 49.066667c-14.933333 14.933333-29.184 24.149333-49.066667 31.914666-15.061333 5.802667-37.632 12.8-79.232 14.677334-44.970667 2.048-58.453333 2.474667-172.416 2.474666-113.92 0-127.445333-0.426667-172.373333-2.474666-41.642667-1.92-64.213333-8.874667-79.274667-14.677334a132.181333 132.181333 0 0 1-49.066667-31.914666 132.181333 132.181333 0 0 1-31.914666-49.066667c-5.845333-15.061333-12.8-37.632-14.677334-79.232-2.048-45.013333-2.474667-58.453333-2.474666-172.416 0-113.92 0.426667-127.402667 2.474666-172.373333 1.92-41.642667 8.832-64.213333 14.677334-79.274667 7.765333-19.882667 17.024-34.133333 31.914666-49.066667 14.933333-14.933333 29.184-24.149333 49.066667-31.914666 15.061333-5.845333 37.632-12.8 79.232-14.677334 45.013333-2.048 58.453333-2.474667 172.416-2.474666m0 491.989333a142.208 142.208 0 1 1 0-284.416 142.208 142.208 0 0 1 0 284.416m0-361.301333a219.093333 219.093333 0 1 0 0 438.186666 219.093333 219.093333 0 0 0 0-438.186666m278.954667-8.661334a51.2 51.2 0 1 1-102.4 0 51.2 51.2 0 0 1 102.4 0" fill="#000000" p-id="4369"></path></svg>