<?xml version="1.0" standalone="no"?><!DOCTYPE svg PUBLIC "-//W3C//DTD SVG 1.1//EN" "http://www.w3.org/Graphics/SVG/1.1/DTD/svg11.dtd"><svg t="1692148206527" class="icon" viewBox="0 0 1024 1024" version="1.1" xmlns="http://www.w3.org/2000/svg" p-id="6965" xmlns:xlink="http://www.w3.org/1999/xlink" width="200" height="200"><path d="M700.85 280.244a89.022 89.022 0 0 0-7.772-3.508c1.036-5.424 1.558-10.95 1.558-16.494 0-48.836-39.538-88.61-88.284-88.99a48.944 48.944 0 0 0-43.968-21.812c-25.644 1.624-45.728 23.642-45.728 50.12v117.848c0 32.604 26.526 59.128 59.13 59.128h114.642c10.43 0 20.184-3.306 27.462-9.31 8.082-6.664 13.124-15.802 14.988-27.162 3.93-23.982-8.942-48.022-32.028-59.82z m18.51 57.604c-1.308 7.99-4.736 14.318-10.182 18.81-4.834 3.986-11.494 6.18-18.75 6.18h-114.642c-25.05 0-45.432-20.38-45.432-45.43V199.56c0-19.27 14.45-35.28 32.9-36.45a35.24 35.24 0 0 1 33.274 18.354l2.064 3.756 4.274-0.19c0.9-0.04 1.842-0.084 2.782-0.084 41.516 0 75.292 33.776 75.292 75.294 0 6.476-0.842 12.918-2.508 19.144l-1.692 6.336 6.256 1.966c4 1.256 7.908 2.854 11.62 4.754 17.762 9.078 27.706 27.326 24.744 45.408z" fill="#4A555F" p-id="6966"></path><path d="M687.338 306.668a58.832 58.832 0 0 0-9.132-3.734l-20.848-6.552 5.634-21.112c1.304-4.89 1.966-9.944 1.966-15.026 0-32.704-26.606-59.312-59.31-59.312-0.702 0-1.402 0.038-2.096 0.068l-14.242 0.63-6.818-12.52a19.27 19.27 0 0 0-18.228-10.05c-9.886 0.628-17.93 9.826-17.93 20.502v117.846c0 16.238 13.212 29.45 29.452 29.45h114.642c3.504 0 6.636-0.92 8.582-2.526 1.536-1.266 3.684-3.586 4.582-9.066 1.832-11.2-4.698-22.69-16.254-28.598z" fill="#FFD452" p-id="6967"></path><path d="M572.418 268.598v-112.4h-13.698v126.098h45.862v38.536h13.698v-52.234zM635.772 186.896h13.698v61.23h-13.698zM656.544 369.682l0.018-36.954 13.698 0.008-0.02 36.954z" fill="#4A555F" p-id="6968"></path><path d="M611.43 313.984c-10.362 0-18.792 8.43-18.792 18.79s8.43 18.79 18.792 18.79c10.36 0 18.79-8.43 18.79-18.79s-8.428-18.79-18.79-18.79z m0 23.882a5.1 5.1 0 0 1-5.094-5.092 5.1 5.1 0 0 1 5.094-5.092 5.1 5.1 0 0 1 5.092 5.092 5.098 5.098 0 0 1-5.092 5.092zM642.636 241.278c-10.36 0-18.79 8.43-18.79 18.79 0 10.362 8.43 18.792 18.79 18.792 10.362 0 18.792-8.43 18.792-18.792 0-10.36-8.428-18.79-18.792-18.79z m0 23.884a5.1 5.1 0 0 1-5.092-5.094 5.1 5.1 0 0 1 5.092-5.092 5.1 5.1 0 0 1 5.094 5.092 5.1 5.1 0 0 1-5.094 5.094zM602.528 207.092c-10.362 0-18.792 8.43-18.792 18.792 0 10.36 8.43 18.79 18.792 18.79 10.36 0 18.79-8.43 18.79-18.79 0-10.364-8.428-18.792-18.79-18.792z m0 23.884a5.1 5.1 0 0 1-5.094-5.092 5.1 5.1 0 0 1 5.094-5.094 5.1 5.1 0 0 1 5.092 5.094 5.098 5.098 0 0 1-5.092 5.092zM565.568 293.32c-10.36 0-18.79 8.43-18.79 18.79s8.43 18.79 18.79 18.79 18.79-8.43 18.79-18.79-8.43-18.79-18.79-18.79z m0 23.882a5.1 5.1 0 0 1-5.092-5.092c0-2.806 2.286-5.092 5.092-5.092s5.092 2.286 5.092 5.092a5.098 5.098 0 0 1-5.092 5.092zM663.412 302c-10.362 0-18.792 8.43-18.792 18.792 0 10.36 8.43 18.79 18.792 18.79 10.36 0 18.79-8.43 18.79-18.79-0.002-10.362-8.43-18.792-18.79-18.792z m0 23.884a5.1 5.1 0 0 1-5.094-5.092 5.1 5.1 0 0 1 5.094-5.094 5.1 5.1 0 0 1 5.092 5.094 5.1 5.1 0 0 1-5.092 5.092z" fill="#4A555F" p-id="6969"></path><path d="M595.68 178.172h13.698v35.768h-13.698zM558.72 324.052h13.698v44.636h-13.698zM450.004 149.44a48.86 48.86 0 0 0-43.972 21.812c-48.748 0.378-88.284 40.152-88.284 88.99 0 5.544 0.522 11.07 1.558 16.494a88.7 88.7 0 0 0-7.77 3.506c-23.088 11.798-35.958 35.84-32.03 59.822 1.864 11.356 6.904 20.496 14.988 27.162 7.28 6.004 17.034 9.31 27.462 9.31h114.642c32.604 0 59.13-26.524 59.13-59.128V199.56c0-26.478-20.084-48.496-45.724-50.12z m32.026 167.968c0 25.05-20.382 45.43-45.432 45.43h-114.642c-7.256 0-13.916-2.194-18.748-6.18-5.448-4.492-8.876-10.822-10.184-18.81-2.964-18.08 6.98-36.328 24.748-45.408a74.724 74.724 0 0 1 11.618-4.75l6.256-1.966-1.692-6.336a74.09 74.09 0 0 1-2.508-19.144c0-41.518 33.776-75.294 75.292-75.294 0.94 0 1.882 0.044 2.802 0.084l4.272 0.19 2.046-3.756c6.562-12.044 19.364-19.266 33.278-18.354 18.446 1.17 32.896 17.18 32.896 36.45v117.844z" fill="#4A555F" p-id="6970"></path><path d="M448.122 179.058a19.268 19.268 0 0 0-18.228 10.05l-6.818 12.52-14.242-0.63c-0.694-0.032-1.394-0.068-2.096-0.068-32.704 0-59.31 26.608-59.31 59.312 0 5.084 0.662 10.138 1.966 15.026l5.634 21.112-20.848 6.552a59.03 59.03 0 0 0-9.132 3.734c-11.558 5.908-18.088 17.398-16.252 28.596 0.898 5.482 3.046 7.8 4.582 9.066 1.946 1.604 5.076 2.526 8.582 2.526h114.642c16.24 0 29.452-13.212 29.452-29.45V199.56c-0.004-10.676-8.048-19.874-17.932-20.502z" fill="#FFD452" p-id="6971"></path><path d="M439.968 156.198v112.4h-45.86v52.234h13.698v-38.536h45.86V156.198zM362.914 186.896h13.698v61.23h-13.698zM342.142 332.734h13.698v36.954h-13.698z" fill="#4A555F" p-id="6972"></path><path d="M400.956 313.984c-10.362 0-18.792 8.43-18.792 18.79s8.43 18.79 18.792 18.79c10.36 0 18.79-8.43 18.79-18.79s-8.43-18.79-18.79-18.79z m0 23.882a5.1 5.1 0 0 1-5.094-5.092 5.1 5.1 0 0 1 5.094-5.092 5.1 5.1 0 0 1 5.092 5.092 5.1 5.1 0 0 1-5.092 5.092zM369.748 241.278c-10.362 0-18.792 8.43-18.792 18.79 0 10.362 8.43 18.792 18.792 18.792 10.36 0 18.79-8.43 18.79-18.792 0-10.36-8.43-18.79-18.79-18.79z m0 23.884a5.1 5.1 0 0 1-5.094-5.094 5.1 5.1 0 0 1 5.094-5.092 5.1 5.1 0 0 1 5.092 5.092 5.1 5.1 0 0 1-5.092 5.094zM409.856 207.092c-10.36 0-18.79 8.43-18.79 18.792 0 10.36 8.43 18.79 18.79 18.79 10.362 0 18.792-8.43 18.792-18.79 0-10.364-8.43-18.792-18.792-18.792z m0 23.884a5.1 5.1 0 0 1-5.092-5.092 5.1 5.1 0 0 1 5.092-5.094 5.1 5.1 0 0 1 5.094 5.094 5.1 5.1 0 0 1-5.094 5.092zM446.816 293.32c-10.36 0-18.79 8.43-18.79 18.79s8.43 18.79 18.79 18.79c10.362 0 18.792-8.43 18.792-18.79s-8.43-18.79-18.792-18.79z m0 23.882a5.1 5.1 0 0 1-5.092-5.092 5.1 5.1 0 0 1 5.092-5.092 5.1 5.1 0 0 1 5.094 5.092 5.1 5.1 0 0 1-5.094 5.092zM348.974 302c-10.36 0-18.79 8.43-18.79 18.792 0 10.36 8.43 18.79 18.79 18.79 10.362 0 18.792-8.43 18.792-18.79 0-10.362-8.43-18.792-18.792-18.792z m0 23.884a5.1 5.1 0 0 1-5.092-5.092 5.1 5.1 0 0 1 5.092-5.094 5.1 5.1 0 0 1 5.094 5.094 5.1 5.1 0 0 1-5.094 5.092z" fill="#4A555F" p-id="6973"></path><path d="M403.008 178.172h13.698v35.768h-13.698zM439.968 324.052h13.698v44.636h-13.698zM505.832 22.02c-94.274 0-178.688 52.666-220.296 137.446l12.298 6.034c39.288-80.052 118.988-129.782 207.998-129.782 89.012 0 168.712 49.73 208 129.782l12.298-6.034c-41.608-84.78-126.022-137.446-220.298-137.446z" fill="#4A555F" p-id="6974"></path><path d="M723.586 113.07l-9.704 39.356-37.172-7.524-2.716 13.428 50.04 10.126 12.854-52.104zM304.718 411.896l-3.068 52.222 13.676 0.802 2.252-38.336 37.434 2.772 1.012-13.662z" fill="#4A555F" p-id="6975"></path><path d="M412.438 493.242l-0.254-0.102c-38.77-17.184-72.124-44.734-96.48-79.696l-11.24 7.83c25.884 37.156 61.374 66.41 102.634 84.592l1.316 0.578c8.13 3.86 56.952 29.966 56.952 99.746h13.698c-0.004-84.842-65.96-112.68-66.626-112.948zM692.414 413.442c-24.354 34.96-57.708 62.508-96.476 79.692l-0.262 0.106c-0.692 0.282-17.152 7.108-33.572 24.486-15.076 15.956-33.048 44.256-33.048 88.46h13.698c0-69.142 46.902-94.982 56.472-99.532l1.792-0.792c41.258-18.184 76.75-47.436 102.636-84.592l-11.24-7.828z" fill="#4A555F" p-id="6976"></path><path d="M565.89 570.474l-29.108 25.786-23.006-29.062-10.742 8.502 31.996 40.416 39.942-35.39z" fill="#4A555F" p-id="6977"></path><path d="M116.42 691.148h-18.218v281.17h18.264v-51.412zM265.636 939.244a829.14 829.14 0 0 0-12.008-1.826c-0.228-0.046-0.456-0.092-0.64-0.092-5.342-0.776-10.776-1.46-16.254-2.146a36.708 36.708 0 0 0-2.238-0.228 756.862 756.862 0 0 0-15.296-1.644c-1.004-0.092-2.01-0.23-2.968-0.32a1442.34 1442.34 0 0 0-15.434-1.278 66.402 66.402 0 0 1-3.014-0.228c-4.384-0.274-31.406-0.592-35.882-0.822l0.32 41.642h234.226c-34.47-12.42-78.44-24.84-130.812-33.058zM881.764 691.148h18.172v281.17h-18.172zM800.378 931.482c-1.004 0.092-2.008 0.184-3.014 0.228-5.206 0.412-10.32 0.822-15.434 1.278-0.958 0.09-1.964 0.228-2.968 0.32-5.16 0.502-10.274 1.05-15.296 1.644-0.73 0.046-1.506 0.138-2.238 0.228-5.48 0.686-10.912 1.37-16.254 2.146-0.182 0-0.41 0.046-0.64 0.092-4.064 0.594-8.036 1.188-12.008 1.826-52.372 8.218-96.342 20.638-130.814 33.058h234.518V930.66c-4.472 0.23-31.468 0.548-35.852 0.822z" fill="#F58E6F" p-id="6978"></path><path d="M502.828 675.334c-1.372-0.922-34.274-22.864-95.77-45.03-56.536-20.38-148.896-44.674-267.824-44.674a6.848 6.848 0 0 0-6.848 6.85v314.098a6.848 6.848 0 0 0 6.848 6.85c116.678 0 207.23 23.752 262.646 43.68 60.074 21.602 92.97 43.49 93.296 43.708a6.846 6.846 0 0 0 7.044 0.362 6.852 6.852 0 0 0 3.63-6.044V681.016a6.852 6.852 0 0 0-3.022-5.682z m-10.676 307.674c-35.586-20.326-158.55-81.78-346.07-83.252v-300.4c113.376 0.904 201.47 24.114 255.798 43.644 49.75 17.884 80.86 35.968 90.27 41.778v298.23z" fill="#4A555F" p-id="6979"></path><path d="M162.064 615.614v268.42c153.986 3.88 261.902 46.238 314.108 72.198V693.878c-32.63-18.582-143.206-73.672-314.108-78.264z" fill="#DFDFDF" p-id="6980"></path><path d="M858.768 585.63c-118.928 0-211.286 24.294-267.824 44.674-61.496 22.168-94.398 44.108-95.77 45.03a6.846 6.846 0 0 0-3.022 5.68v314.116a6.846 6.846 0 0 0 10.674 5.68c0.324-0.216 32.854-21.914 92.764-43.514 55.508-20.014 146.228-43.872 263.178-43.872a6.848 6.848 0 0 0 6.85-6.85V592.48a6.848 6.848 0 0 0-6.85-6.85z m-6.85 314.126c-187.518 1.472-310.482 62.926-346.068 83.252V684.776c9.41-5.81 40.52-23.894 90.27-41.778 54.328-19.53 142.422-42.74 255.798-43.644v300.402z" fill="#4A555F" p-id="6981"></path><path d="M521.832 693.92v262.31c52.206-25.96 160.12-68.318 314.108-72.198V615.618c-170.204 4.616-281.362 59.766-314.108 78.302z" fill="#DFDFDF" p-id="6982"></path><path d="M502.828 989.452c-1.372-0.922-34.276-22.864-95.766-45.028-55.444-19.988-145.344-43.738-260.96-44.648V661.452H68.516V1001.98h452.916l-18.604-12.528z m-420.614-1.168V675.15h50.188v238.296h6.85c170.904 0 287.938 50.67 334.03 74.836H82.214z" fill="#4A555F" p-id="6983"></path><path d="M851.904 661.452v238.324c-223.598 1.752-355.41 88.788-356.728 89.676l-18.604 12.53h452.916V661.452h-77.584z m63.884 326.832H524.678c46.016-24.168 162.92-74.836 334.074-74.836h6.85V675.15h50.188v313.134zM539.056 713.292l7.206 11.652c1.106-0.684 112.25-68.352 263.046-68.352v-13.698c-154.648 0-269.112 69.696-270.252 70.398z" fill="#4A555F" p-id="6984"></path><path d="M539.056 778.84l7.206 11.65c1.106-0.684 112.25-68.35 263.046-68.35v-13.698c-154.648 0-269.112 69.696-270.252 70.398zM539.056 844.392l7.206 11.652c1.106-0.684 112.25-68.352 263.046-68.352v-13.698c-154.648 0-269.112 69.694-270.252 70.398zM539.056 909.94l7.206 11.652c1.106-0.684 112.25-68.352 263.046-68.352v-13.698c-154.648 0-269.112 69.694-270.252 70.398zM189.96 642.894v13.698c150.596 0 261.944 67.668 263.05 68.352l7.204-11.652c-1.14-0.702-115.608-70.398-270.254-70.398zM189.96 708.442v13.698c150.596 0 261.944 67.668 263.05 68.35l7.204-11.65c-1.14-0.702-115.608-70.398-270.254-70.398zM189.96 773.994v13.698c150.596 0 261.944 67.668 263.05 68.352l7.204-11.652c-1.14-0.704-115.608-70.398-270.254-70.398zM189.96 839.542v13.698c150.596 0 261.944 67.668 263.05 68.352l7.204-11.652c-1.14-0.704-115.608-70.398-270.254-70.398zM502.432 989.194l-0.248-0.172c-13.632-8.86-139.33-86.632-352.204-89.228-3.548-0.046-7.136-0.046-10.73-0.046H132.4v102.232h366.692l28.208-0.046-24.868-12.74z m-356.332-0.91V913.46c1.238 0.006 2.474 0.016 3.708 0.034 167.128 2.038 279.002 50.924 323.834 74.79H146.1z" fill="#4A555F" p-id="6985"></path><path d="M858.752 899.748c-3.638 0-7.23 0-10.814 0.046-192.884 2.368-313.86 66.174-346.102 85.536l-5.686 3.5-25.536 13.15h394.988v-102.232h-6.85z m-6.848 88.536h-327.26c43.562-22.876 157.258-72.75 323.466-74.79 1.264-0.018 2.526-0.026 3.792-0.036v74.826z" fill="#4A555F" p-id="6986"></path><path d="M88.486 235.84h101.498v101.5H88.486z" fill="#F58E6F" p-id="6987"></path><path d="M104.448 208.398h13.698v27.442h-13.698zM132.386 208.398h13.698v27.442h-13.698zM160.322 208.398h13.698v27.442h-13.698zM104.448 337.338h13.698v27.44h-13.698zM132.386 337.338h13.698v27.44h-13.698zM160.322 337.338h13.698v27.44h-13.698zM189.984 251.804h27.442v13.698H189.984zM189.984 279.74h27.442v13.698H189.984zM189.984 307.678h27.442v13.698H189.984zM61.044 251.804h27.44v13.698h-27.44zM61.044 279.74h27.44v13.698h-27.44zM61.044 307.678h27.44v13.698h-27.44z" fill="#4A555F" p-id="6988"></path><path d="M81.636 228.992v115.196h115.196v-115.196H81.636z m101.498 101.498h-87.8v-87.8h87.8v87.8z" fill="#4A555F" p-id="6989"></path><path d="M936.702 285.592c0-8.036 13.698-18.218 20.364-23.926a71.472 71.472 0 0 0-4.292-9.726c-8.722 0.594-25.342 3.424-30.912-2.192-5.432-5.388-2.83-21.916-2.42-30.362a80.074 80.074 0 0 0-10.41-4.246c-5.662 6.208-15.296 19.816-22.968 19.816-7.67 0-17.35-13.606-23.012-19.816a80.074 80.074 0 0 0-10.41 4.246c0.412 8.446 3.06 24.976-2.374 30.408-5.57 5.57-22.236 2.786-30.912 2.146a71.226 71.226 0 0 0-4.292 9.726c6.666 5.708 20.41 15.89 20.41 23.926 0 8.264-14.062 18.446-21.232 24.152a70.504 70.504 0 0 0 3.652 9.224c9.132-1.094 26.482-3.516 32.374 2.42 6.072 6.074 3.424 23.562 2.1 32.922a70.892 70.892 0 0 0 8.72 3.698c5.662-7.624 16.392-21.826 24.976-21.826 8.63 0 19.314 14.2 24.976 21.826a70.614 70.614 0 0 0 8.722-3.698c-1.37-9.36-3.972-26.848 2.1-32.922 5.89-5.936 23.196-3.514 32.372-2.42a70.224 70.224 0 0 0 3.652-9.224c-7.166-5.706-21.184-15.89-21.184-24.152z m-50.636 22.828c-12.692 0-23.012-10.318-23.012-23.012 0-12.74 10.318-23.012 23.012-23.012 12.74 0 23.012 10.274 23.012 23.012 0 12.694-10.272 23.012-23.012 23.012z" fill="#71CCE0" p-id="6990"></path><path d="M960 302.694c-4.074-3.192-16.462-12.914-16.462-17.122 0-3.736 11.284-13.094 14.99-16.168 1.096-0.908 2.114-1.752 3.01-2.518l3.562-3.052-1.556-4.426a79.284 79.284 0 0 0-4.7-10.654l-2.08-3.93-4.438 0.3c-1.514 0.102-3.254 0.27-5.134 0.45-3.77 0.364-8.046 0.776-11.946 0.776-7.042 0-8.53-1.392-8.554-1.418-2.198-2.426-1.17-15.024-0.782-19.768 0.164-2.002 0.312-3.85 0.388-5.428l0.218-4.486-4.026-1.99a87.39 87.39 0 0 0-11.298-4.61l-4.214-1.386-2.99 3.278c-1.138 1.246-2.428 2.776-3.826 4.434-2.988 3.542-10.918 12.954-14.072 13.142-3.188-0.162-11.156-9.614-14.156-13.172a157.726 157.726 0 0 0-3.804-4.406l-2.99-3.28-4.214 1.39a87.666 87.666 0 0 0-11.302 4.61l-4.026 1.99 0.218 4.486c0.076 1.584 0.226 3.438 0.39 5.446 0.39 4.756 1.424 17.388-0.77 19.784-0.016 0.014-1.516 1.406-8.572 1.406-3.996 0-8.352-0.43-12.198-0.81-1.752-0.172-3.376-0.332-4.794-0.438l-4.464-0.328-2.094 3.956a79.06 79.06 0 0 0-4.7 10.654l-1.556 4.426 3.562 3.052c0.896 0.764 1.912 1.61 3.01 2.518 3.708 3.074 14.992 12.432 14.992 16.168 0 4.212-12.396 13.932-16.47 17.126l-5.846 4.634 1.414 4.486a77.218 77.218 0 0 0 4.004 10.116l2.116 4.438 6.238-0.752c4.246-0.518 10.058-1.226 15.288-1.226 8.018 0 9.882 1.634 10.068 1.818 2.334 2.334 2.422 11.248 0.256 26.492l-0.778 5.504 4.362 2.218a77.272 77.272 0 0 0 9.572 4.062l4.752 1.656 3.002-4.042c12.324-16.604 17.492-19.082 19.474-19.082s7.148 2.48 19.478 19.084l2.998 4.038 4.754-1.654a77.504 77.504 0 0 0 9.568-4.06l4.348-2.52-0.714-4.868c-2.262-15.426-2.206-24.454 0.172-26.83 0.188-0.184 2.05-1.818 10.07-1.818 5.22 0 11.036 0.706 15.284 1.222l6.278 0.754 2.116-4.436a76.76 76.76 0 0 0 4.004-10.12l1.408-4.482-5.838-4.634z m-23.244 8.004c-9.5 0-15.778 1.854-19.756 5.832-6.562 6.56-6.52 18.578-4.988 31.46-7.784-9.836-16.554-18.664-25.934-18.664-9.39 0-18.168 8.842-25.954 18.69 1.494-12.772 1.576-24.908-5.002-31.486-3.978-3.978-10.254-5.832-19.754-5.832-4.176 0-8.462 0.366-12.226 0.774 10.382-8.298 19.18-16.602 19.18-25.9 0-9.15-8.546-17.208-19.054-25.968l0.174-0.394c3.932 0.388 8.8 0.862 13.422 0.862 5.51 0 13.4-0.562 18.274-5.436 6.67-6.72 5.59-19.944 4.72-30.57a24.844 24.844 0 0 0-0.034-0.4c0.378-0.158 0.762-0.314 1.146-0.466 0.16 0.19 0.324 0.382 0.486 0.578 6.778 8.038 15.212 18.038 24.62 18.038 9.372 0 17.792-9.988 24.556-18.012l0.508-0.604c0.384 0.152 0.764 0.308 1.144 0.466l-0.03 0.384c-0.868 10.636-1.948 23.874 4.726 30.546 4.852 4.888 12.746 5.454 18.264 5.454 4.56 0 9.18-0.446 13.258-0.838l0.202-0.02c0.062 0.138 0.124 0.274 0.182 0.412-10.508 8.76-19.052 16.818-19.052 25.968 0 9.298 8.8 17.602 19.18 25.904-3.77-0.412-8.072-0.778-12.258-0.778z" fill="#4A555F" p-id="6991"></path><path d="M886.082 255.526c-16.466 0-29.864 13.396-29.864 29.864 0 16.466 13.396 29.864 29.864 29.864s29.864-13.396 29.864-29.864c-0.002-16.466-13.398-29.864-29.864-29.864z m0 46.03c-8.914 0-16.166-7.252-16.166-16.166 0-8.914 7.252-16.166 16.166-16.166 8.914 0 16.166 7.252 16.166 16.166 0 8.914-7.254 16.166-16.166 16.166zM143.256 416.148c-71.438 0-129.558-58.12-129.558-129.558 0-71.438 58.12-129.558 129.558-129.558 38.174 0 74.234 16.75 98.938 45.956l10.456-8.846C225.34 161.852 185.466 143.334 143.256 143.334 64.264 143.334 0 207.598 0 286.59s64.264 143.256 143.256 143.256c42.21 0 82.084-18.518 109.396-50.808l-10.456-8.846c-24.704 29.206-60.766 45.956-98.94 45.956z" fill="#4A555F" p-id="6992"></path><path d="M243.916 161.178l-2.954 33.538h-32.112v13.698h44.656l4.056-46.032zM880.744 143.334c-42.21 0-82.084 18.518-109.396 50.808l10.456 8.846c24.706-29.206 60.77-45.956 98.94-45.956 71.438 0 129.56 58.12 129.56 129.558 0 71.438-58.12 129.558-129.56 129.558-38.17 0-74.234-16.75-98.94-45.956l-10.456 8.846c27.312 32.29 67.188 50.808 109.396 50.808 78.992 0 143.256-64.264 143.256-143.256s-64.264-143.256-143.256-143.256z" fill="#4A555F" p-id="6993"></path><path d="M783.038 194.716l-2.956-33.538-13.644 1.204 4.056 46.032h44.656v-13.698z" fill="#4A555F" p-id="6994"></path></svg>