<?xml version="1.0" standalone="no"?><!DOCTYPE svg PUBLIC "-//W3C//DTD SVG 1.1//EN" "http://www.w3.org/Graphics/SVG/1.1/DTD/svg11.dtd"><svg t="1692146620894" class="icon" viewBox="0 0 1024 1024" version="1.1" xmlns="http://www.w3.org/2000/svg" p-id="2453" xmlns:xlink="http://www.w3.org/1999/xlink" width="200" height="200"><path d="M974.72 318.08a252.48 252.48 0 0 0-212.8-203.2 1678.08 1678.08 0 0 0-499.52 0 252.16 252.16 0 0 0-213.12 203.2 1094.72 1094.72 0 0 0 0 387.84 252.48 252.48 0 0 0 212.8 203.2 1677.44 1677.44 0 0 0 499.84 0 252.16 252.16 0 0 0 212.8-203.2 1094.72 1094.72 0 0 0 0-387.84z m-236.48 228.48l-340.48 218.88c-29.76 18.88-53.76 5.76-53.76-29.44V288c0-35.2 24.32-48.32 53.76-29.44l340.48 218.88a38.08 38.08 0 0 1 0 69.12z" fill="#231F20" p-id="2454"></path></svg>