<?xml version="1.0" standalone="no"?><!DOCTYPE svg PUBLIC "-//W3C//DTD SVG 1.1//EN" "http://www.w3.org/Graphics/SVG/1.1/DTD/svg11.dtd"><svg t="1692148184947" class="icon" viewBox="0 0 1024 1024" version="1.1" xmlns="http://www.w3.org/2000/svg" p-id="5807" xmlns:xlink="http://www.w3.org/1999/xlink" width="200" height="200"><path d="M512 512m-414 0a414 414 0 1 0 828 0 414 414 0 1 0-828 0Z" fill="#F0C48A" p-id="5808"></path><path d="M232.07 284.758h348.006v454.486H232.07z" fill="#FFFFFF" p-id="5809"></path><path d="M526.626 284.758h53.45v454.486h-53.45z" fill="#D3E6F8" p-id="5810"></path><path d="M580.076 749.316H232.07a10.076 10.076 0 0 1-10.074-10.074V284.758a10.076 10.076 0 0 1 10.074-10.074h348.006a10.076 10.076 0 0 1 10.074 10.074v454.486a10.078 10.078 0 0 1-10.074 10.072z m-337.934-20.146h327.86v-434.34h-327.86v434.34z" fill="#4C4372" p-id="5811"></path><path d="M526.626 555.408H285.52a10.076 10.076 0 0 1 0-20.148h241.106a10.076 10.076 0 0 1 0 20.148zM485.238 622.078H285.52a10.076 10.076 0 0 1 0-20.148h199.718a10.076 10.076 0 0 1 0 20.148zM416.256 688.75h-130.738a10.076 10.076 0 0 1 0-20.148h130.738a10.076 10.076 0 0 1 0 20.148z" fill="#4C4372" p-id="5812"></path><path d="M424.692 428.66h37.07v66.14h-37.07z" fill="#D3E6F8" p-id="5813"></path><path d="M494.276 332.088h37.07V494.8h-37.07z" fill="#7BABF1" p-id="5814"></path><path d="M285.52 373.476h37.07V494.8H285.52z" fill="#A4CFF2" p-id="5815"></path><path d="M355.104 373.476h37.07V494.8h-37.07z" fill="#A4CFF2" p-id="5816"></path><path d="M322.59 504.872H285.52a10.076 10.076 0 0 1-10.074-10.074v-121.324a10.076 10.076 0 0 1 10.074-10.074h37.07a10.076 10.076 0 0 1 10.074 10.074v121.324a10.074 10.074 0 0 1-10.074 10.074z m-26.998-20.146h16.924v-101.178h-16.924v101.178z" fill="#4C4372" p-id="5817"></path><path d="M392.176 504.872h-37.07a10.076 10.076 0 0 1-10.074-10.074v-121.324a10.076 10.076 0 0 1 10.074-10.074h37.07a10.076 10.076 0 0 1 10.074 10.074v121.324a10.076 10.076 0 0 1-10.074 10.074z m-26.998-20.146h16.924v-101.178h-16.924v101.178z" fill="#4C4372" p-id="5818"></path><path d="M461.76 504.872h-37.07a10.076 10.076 0 0 1-10.074-10.074v-66.14a10.076 10.076 0 0 1 10.074-10.074h37.07a10.076 10.076 0 0 1 10.074 10.074v66.14a10.074 10.074 0 0 1-10.074 10.074z m-26.996-20.146h16.924v-45.994h-16.924v45.994z" fill="#4C4372" p-id="5819"></path><path d="M531.346 504.872h-37.07a10.076 10.076 0 0 1-10.074-10.074v-162.71a10.076 10.076 0 0 1 10.074-10.074h37.07a10.076 10.076 0 0 1 10.074 10.074v162.71a10.076 10.076 0 0 1-10.074 10.074z m-26.996-20.146h16.924V342.16h-16.924v142.566z" fill="#4C4372" p-id="5820"></path><path d="M466.816 739.242l-28.474-28.474 264.306-264.306c7.862-7.862 20.61-7.862 28.474 0 7.862 7.862 7.862 20.61 0 28.474L466.816 739.242z" fill="#FD919E" p-id="5821"></path><path d="M466.816 749.316a10.074 10.074 0 0 1-7.124-2.952l-28.472-28.474a10.07 10.07 0 0 1 0-14.244L695.528 439.34c11.778-11.778 30.94-11.778 42.714 0 11.778 11.778 11.778 30.942 0 42.716L473.938 746.364a10.07 10.07 0 0 1-7.122 2.952z m-14.228-38.546l14.226 14.228 257.184-257.182a10.076 10.076 0 0 0 0-14.23 10.074 10.074 0 0 0-14.228 0L452.588 710.77z" fill="#4C4372" p-id="5822"></path><path d="M635.972 474.886l31.894-31.894 66.714 66.714-31.894 31.894zM702.694 541.606l37.08 37.08a210.028 210.028 0 0 1 17.988 20.484l34.064 44.292c1.782-46.314-19.422-95.934-57.09-133.602l-0.148-0.148-31.894 31.894z" fill="#FFFFFF" p-id="5823"></path><path d="M635.98 474.892l-37.08-37.08a210.028 210.028 0 0 0-20.484-17.988l-44.292-34.062c46.314-1.782 95.934 19.42 133.602 57.09l0.148 0.148-31.894 31.892z" fill="#FFFFFF" p-id="5824"></path><path d="M702.694 551.68a10.036 10.036 0 0 1-7.122-2.952l-66.714-66.714a10.068 10.068 0 0 1 0-14.244l31.894-31.894a10.068 10.068 0 0 1 14.244 0l66.714 66.714a10.068 10.068 0 0 1 0 14.244l-31.894 31.894a10.04 10.04 0 0 1-7.122 2.952z m-52.47-76.788l52.47 52.47 17.65-17.65-52.47-52.47-17.65 17.65z" fill="#4C4372" p-id="5825"></path><path d="M791.828 653.536a10.068 10.068 0 0 1-7.986-3.934l-34.062-44.294a201.06 201.06 0 0 0-17.128-19.502l-37.08-37.08a10.068 10.068 0 0 1 0-14.244l31.894-31.894a10.068 10.068 0 0 1 14.244 0l0.148 0.148c39.474 39.472 61.914 92.224 60.032 141.112a10.07 10.07 0 0 1-10.062 9.688z m-74.89-111.93l29.956 29.958a220.888 220.888 0 0 1 18.852 21.464l13.312 17.31c-6.038-30.406-21.626-60.796-44.642-86.21l-17.478 17.478zM635.98 484.966a10.036 10.036 0 0 1-7.122-2.952l-37.08-37.08a201.244 201.244 0 0 0-19.502-17.126l-44.294-34.064a10.074 10.074 0 0 1 5.754-18.05c48.912-1.922 101.64 20.56 141.11 60.032l0.15 0.15a10.068 10.068 0 0 1 0 14.244l-31.894 31.894a10.04 10.04 0 0 1-7.122 2.952z m-68.732-86.438l17.308 13.312a220.588 220.588 0 0 1 21.464 18.852l29.96 29.958 17.476-17.476c-25.41-23.018-55.802-38.61-86.208-44.646z" fill="#4C4372" p-id="5826"></path></svg>