<?xml version="1.0" standalone="no"?><!DOCTYPE svg PUBLIC "-//W3C//DTD SVG 1.1//EN" "http://www.w3.org/Graphics/SVG/1.1/DTD/svg11.dtd"><svg t="1695696219552" class="icon" viewBox="0 0 1024 1024" version="1.1" xmlns="http://www.w3.org/2000/svg" p-id="4143" xmlns:xlink="http://www.w3.org/1999/xlink" width="200" height="200"><path d="M147.139 760.91l20.57-20.57 116.169 116.17-20.57 20.57zM510.79 434.885l20.578-20.56 78.278 78.344-20.578 20.56zM444.205 464.674l20.581-20.56 115.322 115.435-20.581 20.561zM414.276 531.34l20.578-20.56 78.335 78.4-20.578 20.562zM743.78 164.306l20.575-20.564 116.108 116.174-20.575 20.564zM715.48 233.096l20.556-20.556 75.66 75.66-20.556 20.556zM215.977 732.648l20.572-20.567 75.635 75.656-20.573 20.567z" fill="#1296db" p-id="4144"></path><path d="M401.31 401.31c55.8-55.77 120.51-54.86 238.97 3.26 109.26 53.66 235.48 93.77 343.43-14.23l40.28-40.46-64.2-64.2-40.46 40.43c-55.74 55.77-120.52 54.91-239-3.26-109.2-53.54-235.37-93.83-343.34 14.11" fill="#1296db" p-id="4145"></path><path d="M687 687.03c107.97-107.94 67.74-234.17 14.08-343.43-58.11-118.4-58.97-183.2-3.23-238.97l40.46-40.4L674.11 0l-40.46 40.28c-107.94 108-67.83 234.23-14.29 343.43 58.2 118.4 59.06 183.2 3.31 238.97" fill="#1296db" p-id="4146"></path><path d="M622.69 622.69c-55.8 55.71-120.57 54.86-238.97-3.26-109.2-53.65-235.48-93.77-343.43 14.29L0 674.06l64.2 64.29 40.46-40.4c55.74-55.88 120.51-54.97 238.94 3.2 109.25 53.54 235.43 93.83 343.4-14.11" fill="#1296db" p-id="4147"></path><path d="M337 336.97c-107.97 108-67.74 234.17-14.09 343.43 58.06 118.4 58.97 183.2 3.23 238.97l-40.46 40.4 64.2 64.23 40.46-40.34c107.89-107.86 67.83-234.12 14.23-343.37-58.14-118.46-59-183.2-3.26-238.97" fill="#1296db" p-id="4148"></path></svg>