<?xml version="1.0" standalone="no"?><!DOCTYPE svg PUBLIC "-//W3C//DTD SVG 1.1//EN" "http://www.w3.org/Graphics/SVG/1.1/DTD/svg11.dtd"><svg t="1692147860810" class="icon" viewBox="0 0 1024 1024" version="1.1" xmlns="http://www.w3.org/2000/svg" p-id="4730" xmlns:xlink="http://www.w3.org/1999/xlink" width="200" height="200"><path d="M512 512m-512 0a512 512 0 1 0 1024 0 512 512 0 1 0-1024 0Z" fill="#BDC3C7" p-id="4731"></path><path d="M447.374222 691.541333h98.531556V773.688889h-98.531556z" fill="#BDC3C7" p-id="4732"></path><path d="M534.528 680.163556h22.755556V785.066667h-22.755556zM435.996444 680.163556h22.755556V785.066667h-22.755556z" fill="#464C63" p-id="4733"></path><path d="M370.346667 762.311111h252.586666v22.755556h-252.586666z" fill="#464C63" p-id="4734"></path><path d="M250.311111 308.451556l492.544 0 0 383.089777-492.544 0 0-383.089777Z" fill="#6B7082" p-id="4735"></path><path d="M250.311111 636.814222h483.214222v44.714667H250.311111z" fill="#E1E1E6" p-id="4736"></path><path d="M710.087111 702.919111H283.192889A44.259556 44.259556 0 0 1 238.933333 658.773333V341.333333a44.259556 44.259556 0 0 1 44.259556-44.259555h426.894222A44.259556 44.259556 0 0 1 754.232889 341.333333v317.44a44.259556 44.259556 0 0 1-44.145778 44.145778zM283.192889 319.829333A21.504 21.504 0 0 0 261.688889 341.333333v317.44a21.504 21.504 0 0 0 21.504 21.504h426.894222a21.504 21.504 0 0 0 21.504-21.504V341.333333a21.504 21.504 0 0 0-21.504-21.504z" fill="#464C63" p-id="4737"></path><path d="M238.933333 625.436444h515.299556v22.755556H238.933333z" fill="#464C63" p-id="4738"></path><path d="M764.928 259.072a29.809778 29.809778 0 0 0-42.097778 0l-133.12 133.12a52.451556 52.451556 0 0 1 42.097778 42.211556l133.12-133.12a29.809778 29.809778 0 0 0 0-42.097778" fill="#93CFEF" p-id="4739"></path><path d="M631.808 445.667556a11.377778 11.377778 0 0 1-3.413333 0 11.377778 11.377778 0 0 1-7.850667-8.760889 41.073778 41.073778 0 0 0-32.995556-32.995556 11.377778 11.377778 0 0 1-5.916444-19.228444l133.12-133.12a42.211556 42.211556 0 0 1 58.254222 0 41.187556 41.187556 0 0 1 0 58.254222l-133.12 133.12a11.377778 11.377778 0 0 1-8.078222 2.730667z m-21.390222-58.140445a63.829333 63.829333 0 0 1 26.055111 26.055111l120.490667-120.490666a18.432 18.432 0 0 0 0-26.055112 18.887111 18.887111 0 0 0-26.055112 0z" fill="#464C63" p-id="4740"></path><path d="M589.710222 392.192l-58.368 58.254222 42.097778 42.097778 58.368-58.254222a52.451556 52.451556 0 0 0-42.097778-42.211556" fill="#A2A5B1" p-id="4741"></path><path d="M573.553778 508.700444l-58.254222-58.254222 70.656-70.656 5.916444 1.137778a63.715556 63.715556 0 0 1 51.2 51.427556l1.024 5.916444z m-26.055111-58.254222l26.055111 26.055111 45.511111-45.511111a40.96 40.96 0 0 0-26.055111-26.055111z" fill="#464C63" p-id="4742"></path><path d="M581.745778 442.254222a52.679111 52.679111 0 0 0-74.524445 0c-18.659556 18.659556-17.976889 71.68-17.976889 82.147556V534.755556H505.287111c17.521778 0 59.960889-1.820444 76.231111-18.090667a52.679111 52.679111 0 0 0 0-74.524445" fill="#FABD6B" p-id="4743"></path><path d="M505.628444 546.133333H489.244444a11.377778 11.377778 0 0 1-11.377777-11.377777v-10.012445c0-15.815111 0-69.063111 21.276444-91.022222a64.056889 64.056889 0 0 1 91.022222 0 64.056889 64.056889 0 0 1 0 91.022222C571.278222 543.402667 529.066667 546.133333 505.628444 546.133333zM500.622222 523.377778h4.892445c32.995556 0 59.050667-5.688889 68.266666-14.677334a41.301333 41.301333 0 0 0 0-58.368 42.325333 42.325333 0 0 0-58.368 0c-11.150222 10.922667-15.473778 45.397333-14.791111 73.045334z" fill="#464C63" p-id="4744"></path></svg>